<?xml version="1.0" ?>
<!-- Uploaded to: SVG Repo, www.svgrepo.com, Generator: SVG Repo Mixer Tools -->
<svg width="800px" height="800px" viewBox="0 0 512 512" version="1.1" xml:space="preserve" xmlns="http://www.w3.org/2000/svg" xmlns:xlink="http://www.w3.org/1999/xlink">
<style type="text/css">
	.st0{display:none;}
	.st1{fill:#FFE2D2;}
	.st2{fill:#FFDE83;}
	.st3{fill:#F57070;}
	.st4{fill:#DBDBEF;}
	.st5{fill:#BCE2FF;}
	.st6{fill:#48446D;}
	.st7{fill:#6E78FF;}
	.st8{fill:#FFBE83;}
	.st9{fill:#F5949E;}
	.st10{fill:#D0FF67;}
	.st11{fill:#C69C6D;}
	.st12{fill:#C5BDD3;}
	.st13{fill:#FFE2B8;}
	.st14{fill:#F54670;}
</style>
<g class="st0" id="Layer_1"/>
<g id="Layer_2">
<g>
<path class="st3" d="M182.01,300.11c0.16,0.12,0.3,0.23,0.44,0.35c0.33,0.3,0.67,0.56,1,0.82l0.58,0.45    c0.64,0.52,1.25,1.01,1.82,1.41c0.47,0.33,0.94,0.63,1.42,0.94l0.21,0.13c0.59,0.38,1.3,0.83,1.99,1.23    c0.54,0.3,1.08,0.58,1.63,0.86c0.75,0.38,1.48,0.74,2.2,1.05c0.52,0.23,1.04,0.45,1.58,0.66c0.72,0.29,1.5,0.56,2.4,0.85l0.3,0.1    c0.41,0.13,0.82,0.27,1.23,0.39c0.89,0.25,1.82,0.46,2.61,0.63l0.58,0.13c0.27,0.06,0.55,0.12,0.83,0.17    c1,0.19,2.05,0.31,2.95,0.41c0.24,0.03,0.49,0.06,0.73,0.09c0.14,0.02,0.27,0.04,0.4,0.05c1.45,0.12,2.76,0.18,4.04,0.16    c0.09,0,0.17,0,0.26-0.01c1.18-0.01,2.51-0.1,3.96-0.26c0.15-0.02,0.29-0.05,0.43-0.07c0.24-0.04,0.48-0.08,0.72-0.11    c0.89-0.12,1.93-0.28,2.93-0.49c0.27-0.05,0.54-0.12,0.81-0.19l0.61-0.16c0.77-0.19,1.69-0.42,2.57-0.7    c0.43-0.13,0.86-0.29,1.28-0.44l0.25-0.09c0.89-0.32,1.66-0.61,2.34-0.9c0.55-0.24,1.08-0.48,1.61-0.73    c0.69-0.33,1.39-0.69,2.12-1.09c0.56-0.3,1.1-0.6,1.63-0.93c0.67-0.4,1.36-0.86,1.94-1.26l0.16-0.11    c0.49-0.33,0.98-0.66,1.45-1.02c0.58-0.43,1.19-0.96,1.84-1.51l0.5-0.41c0.33-0.27,0.66-0.54,0.97-0.84    c0.14-0.12,0.29-0.25,0.44-0.38c34.5-32.52,51.82-61.88,51.46-87.25c-0.33-23.48-19.73-42.33-43.2-41.99    c-13.11,0.18-25.22,6.29-33.23,16.77c-1.3,1.7-3.32,2.71-5.46,2.74h-0.1c-2.11,0-4.11-0.95-5.44-2.59    c-8.3-10.24-20.6-15.97-33.69-15.82c-11.38,0.16-22.01,4.74-29.94,12.9c-7.94,8.16-12.22,18.92-12.06,30.29    C128.47,239.71,146.61,268.56,182.01,300.11z"/>
<path class="st4" d="M362.02,453.9c-0.41-0.38-0.82-0.77-1.22-1.16c-0.25-0.26-0.49-0.52-0.73-0.78    c-0.37-0.38-0.73-0.75-1.08-1.14c-0.25-0.28-0.49-0.57-0.73-0.85c-0.33-0.38-0.67-0.77-0.99-1.16c-0.24-0.3-0.47-0.6-0.71-0.9    c-0.3-0.4-0.61-0.79-0.9-1.19c-0.24-0.31-0.46-0.63-0.68-0.95c-0.28-0.4-0.57-0.81-0.84-1.22c-0.22-0.33-0.43-0.66-0.64-0.99    c-0.26-0.42-0.52-0.84-0.77-1.26c-0.2-0.34-0.4-0.68-0.59-1.03c-0.24-0.43-0.48-0.85-0.71-1.29c-0.18-0.35-0.37-0.71-0.54-1.06    c-0.22-0.44-0.44-0.88-0.64-1.33c-0.17-0.36-0.34-0.73-0.5-1.09c-0.2-0.46-0.39-0.91-0.57-1.37c-0.15-0.37-0.3-0.74-0.44-1.12    c-0.18-0.46-0.35-0.93-0.51-1.4c-0.13-0.38-0.26-0.76-0.39-1.14c-0.15-0.48-0.29-0.96-0.43-1.45c-0.11-0.38-0.23-0.76-0.33-1.15    c-0.13-0.49-0.25-0.99-0.37-1.49c-0.09-0.39-0.18-0.77-0.26-1.16c-0.11-0.52-0.21-1.04-0.3-1.56c-0.07-0.38-0.14-0.76-0.2-1.14    c-0.09-0.55-0.16-1.1-0.23-1.66c-0.04-0.36-0.1-0.72-0.14-1.08c-0.06-0.62-0.1-1.24-0.15-1.86c-0.02-0.31-0.05-0.62-0.07-0.93    c-0.05-0.93-0.07-1.87-0.07-2.82V57.5H74.06v156.31c0,3.7-2.87,6.72-6.5,6.97c-0.17,0.02-0.33,0.03-0.5,0.03s-0.33-0.01-0.5-0.03    v28.25c0.17-0.01,0.33-0.02,0.5-0.02s0.33,0.01,0.5,0.03c1.66,0.12,3.26,0.82,4.45,2.01c0.32,0.32,0.61,0.68,0.87,1.06    c0.25,0.38,0.47,0.79,0.64,1.21c0.17,0.42,0.31,0.87,0.4,1.31c0.09,0.45,0.14,0.91,0.14,1.37s-0.05,0.92-0.14,1.37    c-0.09,0.44-0.23,0.88-0.4,1.31c-0.17,0.42-0.39,0.83-0.64,1.21c-0.26,0.38-0.55,0.74-0.87,1.06c-1.19,1.18-2.79,1.9-4.45,2.02    c-0.17,0.02-0.33,0.03-0.5,0.03s-0.33-0.01-0.5-0.03v21.12c0.17-0.02,0.33-0.03,0.5-0.03s0.33,0.01,0.5,0.03    c3.63,0.25,6.5,3.27,6.5,6.97v124.11c0,21.69,17.64,39.33,39.32,39.33h249.26C362.42,454.31,362.22,454.1,362.02,453.9z     M144.42,99.85h130.51c3.87,0,7,3.14,7,7c0,3.87-3.13,7-7,7H144.42c-3.87,0-7-3.13-7-7C137.42,102.99,140.55,99.85,144.42,99.85z     M274.93,418.31H144.42c-3.87,0-7-3.14-7-7c0-3.87,3.13-7,7-7h130.51c3.87,0,7,3.13,7,7C281.93,415.17,278.8,418.31,274.93,418.31    z M137.42,363.99c0-3.87,3.13-7,7-7h96.95c3.86,0,7,3.13,7,7s-3.14,7-7,7h-96.95C140.55,370.99,137.42,367.86,137.42,363.99z     M279.88,368.94c-0.32,0.32-0.68,0.62-1.07,0.87c-0.37,0.25-0.78,0.47-1.2,0.64c-0.43,0.18-0.87,0.31-1.31,0.4    c-0.45,0.09-0.91,0.14-1.37,0.14c-0.46,0-0.92-0.05-1.37-0.14c-0.45-0.09-0.89-0.22-1.31-0.4c-0.42-0.17-0.83-0.39-1.21-0.64    c-0.38-0.25-0.74-0.55-1.06-0.87c-0.32-0.32-0.62-0.68-0.87-1.06s-0.47-0.79-0.64-1.21c-0.18-0.43-0.31-0.87-0.4-1.31    c-0.09-0.45-0.14-0.91-0.14-1.37s0.05-0.92,0.14-1.37c0.09-0.44,0.22-0.89,0.4-1.31c0.17-0.42,0.39-0.83,0.64-1.21    s0.55-0.74,0.87-1.06c0.32-0.32,0.68-0.61,1.06-0.87c0.38-0.25,0.79-0.47,1.21-0.64c0.42-0.18,0.86-0.31,1.31-0.4    c0.9-0.18,1.83-0.18,2.74,0c0.44,0.09,0.88,0.22,1.31,0.4c0.42,0.17,0.83,0.39,1.2,0.64c0.39,0.26,0.75,0.55,1.07,0.87    c0.32,0.32,0.61,0.68,0.87,1.06c0.25,0.38,0.47,0.79,0.64,1.21c0.18,0.42,0.31,0.87,0.4,1.31c0.09,0.45,0.14,0.91,0.14,1.37    C281.93,365.83,281.18,367.63,279.88,368.94z M249.26,309.59c-0.18,0.17-0.35,0.31-0.52,0.45c-0.47,0.43-0.94,0.83-1.42,1.23    l-0.42,0.35c-0.77,0.65-1.56,1.32-2.45,1.99c-0.66,0.49-1.32,0.95-1.99,1.41l-0.15,0.1c-0.74,0.5-1.63,1.1-2.59,1.68    c-0.71,0.43-1.44,0.84-2.17,1.24c-0.95,0.52-1.91,1.01-2.83,1.45c-0.72,0.34-1.42,0.66-2.14,0.96c-0.93,0.4-1.95,0.8-3.11,1.21    l-0.24,0.08c-0.6,0.22-1.2,0.43-1.8,0.62c-1.26,0.39-2.49,0.71-3.43,0.94l-0.47,0.12c-0.47,0.12-0.93,0.24-1.4,0.33    c-1.42,0.3-2.76,0.5-3.89,0.66l-0.36,0.05c-0.39,0.07-0.78,0.13-1.17,0.17c-1.92,0.21-3.7,0.33-5.45,0.35    c-0.04,0.01-0.08,0.01-0.1,0.01c-0.01,0-0.02,0-0.02,0h-0.68c-1.47,0-3.03-0.07-4.69-0.2c-0.37-0.04-0.76-0.08-1.14-0.14    c-0.12-0.01-0.24-0.03-0.36-0.04c-1.15-0.13-2.51-0.29-3.94-0.55c-0.47-0.09-0.95-0.19-1.43-0.3l-0.45-0.1    c-0.93-0.2-2.18-0.48-3.46-0.85c-0.59-0.16-1.16-0.35-1.74-0.54l-0.29-0.09c-1.17-0.38-2.21-0.75-3.19-1.13    c-0.7-0.28-1.41-0.58-2.11-0.89c-0.97-0.42-1.95-0.89-2.92-1.39c-0.73-0.37-1.45-0.75-2.17-1.16c-0.99-0.56-1.9-1.13-2.66-1.62    l-0.2-0.13c-0.66-0.42-1.32-0.85-1.96-1.3c-0.89-0.63-1.68-1.27-2.45-1.88l-0.51-0.4c-0.48-0.38-0.96-0.76-1.43-1.17    c-0.2-0.15-0.37-0.29-0.54-0.45c-38.54-34.3-58.29-66.64-58.7-96.12c-0.22-15.12,5.47-29.41,16.01-40.25    c10.54-10.84,24.66-16.93,39.78-17.14c14.72-0.19,28.58,5.2,39.18,15.03c10.32-10.13,24.06-15.92,38.75-16.13    c0.26,0,0.54-0.01,0.81-0.01c30.84,0,56.14,24.87,56.58,55.81C305.64,241.33,286.81,274.21,249.26,309.59z"/>
<path class="st12" d="M437.94,206.92v208.25c0,21.69-17.64,39.33-39.32,39.33c-21.69,0-39.33-17.64-39.33-39.33V199.71h23.31    c0,0.07-0.01,0.14-0.01,0.21c0,0.1,0,0.2,0.02,0.29c0.01,0.17,0.03,0.33,0.04,0.5c0.39,3.49,3.35,6.21,6.94,6.21H437.94z"/>
<path class="st6" d="M451.94,199.92v215.25c0,29.41-23.92,53.33-53.32,53.33H113.38c-29.4,0-53.32-23.92-53.32-53.33V291.06    c0-3.7,2.86-6.72,6.5-6.97c0.17-0.02,0.33-0.03,0.5-0.03s0.33,0.01,0.5,0.03c3.63,0.25,6.5,3.27,6.5,6.97v124.11    c0,21.69,17.64,39.33,39.32,39.33h249.26c-0.22-0.19-0.42-0.4-0.62-0.6c-0.41-0.38-0.82-0.77-1.22-1.16    c-0.25-0.26-0.49-0.52-0.73-0.78c-0.37-0.38-0.73-0.75-1.08-1.14c-0.25-0.28-0.49-0.57-0.73-0.85c-0.33-0.38-0.67-0.77-0.99-1.16    c-0.24-0.3-0.47-0.6-0.71-0.9c-0.3-0.4-0.61-0.79-0.9-1.19c-0.24-0.31-0.46-0.63-0.68-0.95c-0.28-0.4-0.57-0.81-0.84-1.22    c-0.22-0.33-0.43-0.66-0.64-0.99c-0.26-0.42-0.52-0.84-0.77-1.26c-0.2-0.34-0.4-0.68-0.59-1.03c-0.24-0.43-0.48-0.85-0.71-1.29    c-0.18-0.35-0.37-0.71-0.54-1.06c-0.22-0.44-0.44-0.88-0.64-1.33c-0.17-0.36-0.34-0.73-0.5-1.09c-0.2-0.46-0.39-0.91-0.57-1.37    c-0.15-0.37-0.3-0.74-0.44-1.12c-0.18-0.46-0.35-0.93-0.51-1.4c-0.13-0.38-0.26-0.76-0.39-1.14c-0.15-0.48-0.29-0.96-0.43-1.45    c-0.11-0.38-0.23-0.76-0.33-1.15c-0.13-0.49-0.25-0.99-0.37-1.49c-0.09-0.39-0.18-0.77-0.26-1.16c-0.11-0.52-0.21-1.04-0.3-1.56    c-0.07-0.38-0.14-0.76-0.2-1.14c-0.09-0.55-0.16-1.1-0.23-1.66c-0.04-0.36-0.1-0.72-0.14-1.08c-0.06-0.62-0.1-1.24-0.15-1.86    c-0.02-0.31-0.05-0.62-0.07-0.93c-0.05-0.93-0.07-1.87-0.07-2.82V57.5H74.06v156.31c0,3.7-2.87,6.72-6.5,6.97    c-0.17,0.02-0.33,0.03-0.5,0.03s-0.33-0.01-0.5-0.03c-3.64-0.25-6.5-3.27-6.5-6.97V50.5c0-3.87,3.13-7,7-7h285.23    c3.86,0,7,3.13,7,7v364.67c0,21.69,17.64,39.33,39.33,39.33c21.68,0,39.32-17.64,39.32-39.33V206.92h-48.35    c-3.59,0-6.55-2.72-6.94-6.21c-0.01-0.17-0.03-0.33-0.04-0.5c-0.02-0.09-0.02-0.19-0.02-0.29c0-0.07,0.01-0.14,0.01-0.21    c0.11-3.77,3.2-6.79,6.99-6.79h55.35C448.81,192.92,451.94,196.05,451.94,199.92z"/>
<path class="st6" d="M74.06,256c0,0.46-0.05,0.92-0.14,1.37c-0.09,0.44-0.23,0.88-0.4,1.31c-0.17,0.42-0.39,0.83-0.64,1.21    c-0.26,0.38-0.55,0.74-0.87,1.06c-1.19,1.18-2.79,1.9-4.45,2.02c-0.17,0.02-0.33,0.03-0.5,0.03s-0.33-0.01-0.5-0.03    c-0.29-0.02-0.58-0.05-0.87-0.11c-0.45-0.09-0.89-0.22-1.31-0.4c-0.42-0.17-0.83-0.39-1.21-0.64c-0.38-0.26-0.74-0.55-1.06-0.87    c-0.33-0.32-0.62-0.68-0.87-1.06c-0.26-0.38-0.47-0.79-0.65-1.21c-0.17-0.43-0.31-0.87-0.4-1.31c-0.09-0.45-0.13-0.91-0.13-1.37    s0.04-0.92,0.13-1.37c0.09-0.44,0.23-0.89,0.4-1.31c0.18-0.42,0.39-0.83,0.65-1.21c0.25-0.38,0.54-0.74,0.87-1.06    c0.32-0.32,0.68-0.62,1.06-0.87c0.38-0.25,0.79-0.47,1.21-0.64c0.42-0.18,0.86-0.31,1.31-0.4c0.29-0.06,0.58-0.09,0.87-0.11    c0.17-0.01,0.33-0.02,0.5-0.02s0.33,0.01,0.5,0.03c1.66,0.12,3.26,0.82,4.45,2.01c0.32,0.32,0.61,0.68,0.87,1.06    c0.25,0.38,0.47,0.79,0.64,1.21c0.17,0.42,0.31,0.87,0.4,1.31C74.01,255.08,74.06,255.54,74.06,256z"/>
<path class="st6" d="M248.65,156.04c-0.27,0-0.55,0.01-0.81,0.01c-14.69,0.21-28.43,6-38.75,16.13    c-10.6-9.83-24.46-15.22-39.18-15.03c-15.12,0.21-29.24,6.3-39.78,17.14c-10.54,10.84-16.23,25.13-16.01,40.25    c0.41,29.48,20.16,61.82,58.7,96.12c0.17,0.16,0.34,0.3,0.54,0.45c0.47,0.41,0.95,0.79,1.43,1.17l0.51,0.4    c0.77,0.61,1.56,1.25,2.45,1.88c0.64,0.45,1.3,0.88,1.96,1.3l0.2,0.13c0.76,0.49,1.67,1.06,2.66,1.62    c0.72,0.41,1.44,0.79,2.17,1.16c0.97,0.5,1.95,0.97,2.92,1.39c0.7,0.31,1.41,0.61,2.11,0.89c0.98,0.38,2.02,0.75,3.19,1.13    l0.29,0.09c0.58,0.19,1.15,0.38,1.74,0.54c1.28,0.37,2.53,0.65,3.46,0.85l0.45,0.1c0.48,0.11,0.96,0.21,1.43,0.3    c1.43,0.26,2.79,0.42,3.94,0.55c0.12,0.01,0.24,0.03,0.36,0.04c0.38,0.06,0.77,0.1,1.14,0.14c1.66,0.13,3.22,0.2,4.69,0.2h0.68    c0,0,0.01,0,0.02,0c0.02,0,0.06,0,0.1-0.01c1.75-0.02,3.53-0.14,5.45-0.35c0.39-0.04,0.78-0.1,1.17-0.17l0.36-0.05    c1.13-0.16,2.47-0.36,3.89-0.66c0.47-0.09,0.93-0.21,1.4-0.33l0.47-0.12c0.94-0.23,2.17-0.55,3.43-0.94c0.6-0.19,1.2-0.4,1.8-0.62    l0.24-0.08c1.16-0.41,2.18-0.81,3.11-1.21c0.72-0.3,1.42-0.62,2.14-0.96c0.92-0.44,1.88-0.93,2.83-1.45    c0.73-0.4,1.46-0.81,2.17-1.24c0.96-0.58,1.85-1.18,2.59-1.68l0.15-0.1c0.67-0.46,1.33-0.92,1.99-1.41    c0.89-0.67,1.68-1.34,2.45-1.99l0.42-0.35c0.48-0.4,0.95-0.8,1.42-1.23c0.17-0.14,0.34-0.28,0.52-0.45    c37.55-35.38,56.38-68.26,55.97-97.74C304.79,180.91,279.49,156.04,248.65,156.04z M239.77,299.29c-0.15,0.13-0.3,0.26-0.44,0.38    c-0.31,0.3-0.64,0.57-0.97,0.84l-0.5,0.41c-0.65,0.55-1.26,1.08-1.84,1.51c-0.47,0.36-0.96,0.69-1.45,1.02l-0.16,0.11    c-0.58,0.4-1.27,0.86-1.94,1.26c-0.53,0.33-1.07,0.63-1.63,0.93c-0.73,0.4-1.43,0.76-2.12,1.09c-0.53,0.25-1.06,0.49-1.61,0.73    c-0.68,0.29-1.45,0.58-2.34,0.9l-0.25,0.09c-0.42,0.15-0.85,0.31-1.28,0.44c-0.88,0.28-1.8,0.51-2.57,0.7l-0.61,0.16    c-0.27,0.07-0.54,0.14-0.81,0.19c-1,0.21-2.04,0.37-2.93,0.49c-0.24,0.03-0.48,0.07-0.72,0.11c-0.14,0.02-0.28,0.05-0.43,0.07    c-1.45,0.16-2.78,0.25-3.96,0.26c-0.09,0.01-0.17,0.01-0.26,0.01c-1.28,0.02-2.59-0.04-4.04-0.16c-0.13-0.01-0.26-0.03-0.4-0.05    c-0.24-0.03-0.49-0.06-0.73-0.09c-0.9-0.1-1.95-0.22-2.95-0.41c-0.28-0.05-0.56-0.11-0.83-0.17l-0.58-0.13    c-0.79-0.17-1.72-0.38-2.61-0.63c-0.41-0.12-0.82-0.26-1.23-0.39l-0.3-0.1c-0.9-0.29-1.68-0.56-2.4-0.85    c-0.54-0.21-1.06-0.43-1.58-0.66c-0.72-0.31-1.45-0.67-2.2-1.05c-0.55-0.28-1.09-0.56-1.63-0.86c-0.69-0.4-1.4-0.85-1.99-1.23    l-0.21-0.13c-0.48-0.31-0.95-0.61-1.42-0.94c-0.57-0.4-1.18-0.89-1.82-1.41l-0.58-0.45c-0.33-0.26-0.67-0.52-1-0.82    c-0.14-0.12-0.28-0.23-0.44-0.35c-35.4-31.55-53.54-60.4-53.9-85.77c-0.16-11.37,4.12-22.13,12.06-30.29    c7.93-8.16,18.56-12.74,29.94-12.9c13.09-0.15,25.39,5.58,33.69,15.82c1.33,1.64,3.33,2.59,5.44,2.59h0.1    c2.14-0.03,4.16-1.04,5.46-2.74c8.01-10.48,20.12-16.59,33.23-16.77c23.47-0.34,42.87,18.51,43.2,41.99    C291.59,237.41,274.27,266.77,239.77,299.29z"/>
<path class="st6" d="M281.93,363.99c0,1.84-0.75,3.64-2.05,4.95c-0.32,0.32-0.68,0.62-1.07,0.87c-0.37,0.25-0.78,0.47-1.2,0.64    c-0.43,0.18-0.87,0.31-1.31,0.4c-0.45,0.09-0.91,0.14-1.37,0.14c-0.46,0-0.92-0.05-1.37-0.14c-0.45-0.09-0.89-0.22-1.31-0.4    c-0.42-0.17-0.83-0.39-1.21-0.64c-0.38-0.25-0.74-0.55-1.06-0.87c-0.32-0.32-0.62-0.68-0.87-1.06s-0.47-0.79-0.64-1.21    c-0.18-0.43-0.31-0.87-0.4-1.31c-0.09-0.45-0.14-0.91-0.14-1.37s0.05-0.92,0.14-1.37c0.09-0.44,0.22-0.89,0.4-1.31    c0.17-0.42,0.39-0.83,0.64-1.21s0.55-0.74,0.87-1.06c0.32-0.32,0.68-0.61,1.06-0.87c0.38-0.25,0.79-0.47,1.21-0.64    c0.42-0.18,0.86-0.31,1.31-0.4c0.9-0.18,1.83-0.18,2.74,0c0.44,0.09,0.88,0.22,1.31,0.4c0.42,0.17,0.83,0.39,1.2,0.64    c0.39,0.26,0.75,0.55,1.07,0.87c0.32,0.32,0.61,0.68,0.87,1.06c0.25,0.38,0.47,0.79,0.64,1.21c0.18,0.42,0.31,0.87,0.4,1.31    C281.88,363.07,281.93,363.53,281.93,363.99z"/>
<path class="st6" d="M248.37,363.99c0,3.87-3.14,7-7,7h-96.95c-3.87,0-7-3.13-7-7s3.13-7,7-7h96.95    C245.23,356.99,248.37,360.12,248.37,363.99z"/>
<path class="st6" d="M281.93,106.85c0,3.87-3.13,7-7,7H144.42c-3.87,0-7-3.13-7-7c0-3.86,3.13-7,7-7h130.51    C278.8,99.85,281.93,102.99,281.93,106.85z"/>
<path class="st6" d="M281.93,411.31c0,3.86-3.13,7-7,7H144.42c-3.87,0-7-3.14-7-7c0-3.87,3.13-7,7-7h130.51    C278.8,404.31,281.93,407.44,281.93,411.31z"/>
</g>
</g>
</svg>